HIERARCHY
ROOT Hips
{
  OFFSET 0.0 0.0 0.0
  CHANNELS 6 XPOSITION YPOSITION ZPOSITION ZROTATION XROTATION YROTATION 
  JOINT RightUpLeg
  {
    OFFSET -0.08945800000000001 -0.0866707 0.0010165200000000001
    CHANNELS 3 ZROTATION XROTATION YROTATION 
    JOINT RightLeg
    {
      OFFSET 0.0 -0.444227 0.013727000000000001
      CHANNELS 3 ZROTATION XROTATION YROTATION 
      JOINT RightFoot
      {
        OFFSET 0.0025354900000000005 -0.42092399999999996 -0.014605900000000002
        CHANNELS 3 ZROTATION XROTATION YROTATION 
        End Site
        {
          OFFSET 0.0004 -0.0441509 0.08499100000000001
        }
      }
    }
  }
  JOINT Spine
  {
    OFFSET 0.0 0.118905 0.0
    CHANNELS 3 ZROTATION XROTATION YROTATION 
    JOINT Spine1
    {
      OFFSET 0.0 0.25657399999999997 0.00127663
      CHANNELS 3 ZROTATION XROTATION YROTATION 
      End Site
      {
        OFFSET -0.0029 0.21508359999999999 0.02525291
      }
      JOINT RightArm
      {
        OFFSET -0.162727 -0.05365632 0.0010212299999999997
        CHANNELS 3 ZROTATION XROTATION YROTATION 
        JOINT RightForeArm
        {
          OFFSET -0.26364 0.00099144 -0.0142434
          CHANNELS 3 ZROTATION XROTATION YROTATION 
          End Site
          {
            OFFSET -0.220324 0.0008536199999999999 0.010221599999999999
          }
        }
      }
      JOINT LeftArm
      {
        OFFSET 0.162727 -0.053656319900000006 0.0010212299999999997
        CHANNELS 3 ZROTATION XROTATION YROTATION 
        JOINT LeftForeArm
        {
          OFFSET 0.26259699999999997 0.00099144 -0.0142434
          CHANNELS 3 ZROTATION XROTATION YROTATION 
          End Site
          {
            OFFSET 0.220902 0.0008536199999999999 0.010221599999999999
          }
        }
      }
    }
  }
  JOINT LeftUpLeg
  {
    OFFSET 0.08945800000000001 -0.0866707 0.0010165200000000001
    CHANNELS 3 ZROTATION XROTATION YROTATION 
    JOINT LeftLeg
    {
      OFFSET 0.0 -0.444227 0.013727000000000001
      CHANNELS 3 ZROTATION XROTATION YROTATION 
      JOINT LeftFoot
      {
        OFFSET -0.0025354900000000005 -0.42092399999999996 -0.014605900000000002
        CHANNELS 3 ZROTATION XROTATION YROTATION 
        End Site
        {
          OFFSET -0.0004 -0.0441509 0.08499100000000001
        }
      }
    }
  }
}
MOTION
Frames: 12
Frame Time: 0.041667
2.16702 0.9932 0.052776699999999996 3.456208481828444 -0.7508605713452201 -100.96716212268677 0.4943330201889688 -14.16210098456619 12.710199988733763 -0.3599549980040652 25.084399066532505 -0.3035269899696082 3.433627236102147 -39.14696285055045 1.5719525628310964 -1.6134299537830565 6.155649932866047 -1.443080019962767 0.3248380072732678 1.0033300296391319 -1.6427900555388852 73.64139208378498 -13.81064079421849 -5.4467151437196275 -3.567520074732142 30.211798170798982 30.560902799656674 -73.72348412741935 -30.735922982043665 -3.6032795301317435 -8.15262990654311 58.685900594098335 -6.627049952586463 2.2822184918137274 -11.225808636793232 0.4249642049157177 2.2958801508142224 17.687801091670813 -2.668186078508801 -1.2552451220323617 -35.51726030672769 -1.4920630417606306 
2.16704 0.9929899999999999 0.0505021 3.290585999409155 -0.939439693090892 -99.0062626233003 0.5715279782710115 -12.021099642050238 10.79060008193742 -0.5788629611093705 23.52960041708019 -0.3159979815791259 2.5232895916825044 -39.06446782575504 1.5355126498354321 -1.725379955930739 5.801129817770181 -1.4132100018967144 -0.06695819872327295 1.1046600481227964 -1.5356700643514596 73.9199271981381 -14.65391302462119 -6.303825764267596 -3.5253699101469356 30.280800156889036 30.06680008490878 -74.45512716112195 -30.19262241470417 -4.526966565840765 -8.075319849101382 58.34999872090628 -6.8457402300924 2.0299815267558605 -11.110680675690789 0.10768475578431443 2.2519701453006795 17.487599709361277 -4.373316337819451 -0.8608079940447665 -35.39768760002286 -1.489118803341532 
2.16671 0.9935900000000001 0.047888400000000005 3.4240575007447247 -1.1677380190466278 -97.93252273482845 0.7117370343359755 -10.270499959661167 7.345599513650145 -1.5845299293008517 20.83709886512614 -0.1155700024077892 0.6203354428628649 -39.39989841589436 1.4865983568160914 -1.2774099396626994 5.453540210247763 -0.9560380132693751 -0.6066710090980196 0.8449900229789574 -0.919019882071787 74.12032494838627 -14.391555213317245 -6.977091171134092 -3.4065301681174143 30.50440005974774 28.601200290922247 -75.12646645464251 -27.296567565105402 -4.988239122569345 -6.821919945361981 54.13160217252012 -9.117120065466963 1.9454886716282178 -10.975464274465693 -0.1880833727418907 2.0901700074956593 16.766599817932853 -5.119115792350544 -0.801091169883669 -35.19168226446611 -1.4803651688682202 
2.16683 0.99425 0.0448479 3.753718715469506 -1.1286167231932047 -97.45627413457096 0.9171900317044582 -9.719239660617669 4.934449675308202 -2.261660049298812 19.238499920073828 0.2719099909407663 -0.09127315857030927 -39.5034577440901 1.4646414330686162 -0.14972500368267264 5.4352698811048015 -0.4337490021271177 -1.5406800081076641 0.3728409769665141 -0.1710719995413938 74.70731823584634 -13.316908617233072 -6.869954104473742 -3.4536599674943833 31.199901147457215 26.57410089055272 -75.45679489347184 -21.791889301654933 -4.982397176394868 -5.303879666475382 46.19470037581728 -12.393600230136162 2.040141860033078 -11.558059773873918 -1.0863770190968476 2.1822900494920905 17.015100882958134 -4.675325958576258 -1.2126269827673037 -35.08395310578208 -1.4712969188062646 
2.16637 0.9933899999999999 0.041301500000000005 3.8697106955019547 -0.6253156646240091 -96.81123106935496 1.2443299461301525 -9.499210239147587 3.5576299608139634 -2.1501098266609873 18.83490062692319 1.5952199224038621 1.0654455842202262 -39.46573119420953 1.5072945770531707 1.1372600074227384 5.770949773148834 -0.12028100532588648 -2.0491698760119537 0.2188999989980114 0.2571949887042085 75.0951705278655 -12.41092927383413 -6.518308645244805 -3.681830120681475 32.350002550849815 25.11659999337453 -76.14893894320424 -15.690614504771357 -4.898556604332962 -4.279300064554694 37.30790026557867 -15.317998657243189 2.4726125762487716 -12.756427562810055 -3.057222127688503 2.144519957155566 19.10879804282987 -3.442295813375951 -1.685387384071316 -35.692512715546464 -1.4990695351885943 
2.16521 0.98981 0.0373054 3.788505722686027 0.30514147593466995 -95.56771316868411 2.1376400356706595 -9.291510162903021 2.315509901045427 -1.8647601045068984 19.33430015337243 1.8399899965950242 1.2982430838482961 -40.326789237210946 1.5590975064828976 2.2980999622944767 6.3684999717448 -0.1538739967579116 -1.4615700890979317 0.16867799155687788 0.1571540083438251 74.86935081352655 -11.356039853697865 -6.679970685162545 -3.8116502455754384 32.82479973590866 24.951801189080463 -77.00299945740099 -10.807217932188061 -4.696839346914506 -3.756100317055725 30.342203557527448 -17.503198153878294 3.5629824812457263 -14.510870080380904 -5.555590493523747 1.1752299895141913 22.70999991479346 -2.059226048904328 -2.0926807423458738 -37.21732512699513 -1.5877313670308837 
2.16378 0.9843699999999999 0.0332741 3.7165074179844533 1.2964789740517288 -93.85352693230766 3.380080047113128 -9.617669625017703 1.821660116740237 -1.684589959485717 20.974901346725733 0.021573699442227402 0.055718071902225684 -41.83651717587764 1.5566477097266844 3.4037500676818073 7.223309245429298 -0.5017519930097778 -0.7115510184027984 -0.2555779947790609 -0.2584860011790467 74.57929317004361 -10.01812105473461 -7.126876365858826 -3.578949969421335 32.07440100274521 25.256098069435577 -77.35950801131897 -8.631619120205057 -4.528721497570635 -3.384609956636728 27.768600231097693 -18.6186995264829 4.661228021242529 -17.329873565952756 -5.75339874830284 0.6674100137570919 28.148599513118644 -3.075175920252116 -2.9566392678670144 -37.9597018029784 -1.650465053731864 
2.16071 0.9797699999999999 0.029514900000000004 3.643819264176708 1.9821475775641457 -92.0556162370852 4.39281012459749 -9.97128986269042 1.949270035107466 -1.5527299559074474 22.66269914724383 -1.9818801329694573 -0.9239551206339442 -43.06267615077291 1.5270936946314508 4.148480170720971 7.8991402421027805 -0.8229029521112816 -0.3288320137512856 -0.5429069776885723 -0.596529031954197 74.5970175109398 -10.076274992875392 -7.011911475522818 -3.253160191295482 31.819901324081368 24.791899630421295 -77.56667447903463 -10.261911850553522 -4.527654707399644 -3.092640073629604 29.860999655027125 -18.30339921137489 5.1385002961018635 -21.14797151010469 -5.059921531021805 0.6897060457246879 35.04820048057165 -4.1308557213413994 -3.7920403455815084 -36.578183345222016 -1.559157804246664 
2.1545300000000003 0.9774600000000001 0.026096499999999998 3.648650769240846 2.1481555387847173 -90.60721998207065 4.901490170581482 -9.844159551668971 2.126550156336086 -1.5398600652421452 23.43410071210507 -3.6445398491341443 -1.3321755703666252 -44.04648976863238 1.5167343253729513 4.088980258426874 8.151530246086738 -0.7851849933280316 0.12222599507354016 -0.46621105030276355 -0.6299339930808484 74.72885382229939 -11.702504614441347 -6.255697690054747 -3.123029933124518 32.8428997372092 23.687101164246098 -77.80271898656109 -14.45462347256585 -4.0706569953178455 -3.101560087242229 34.06699941006971 -17.08280001046401 5.022600523623209 -24.94044258449073 -3.980921970002218 0.772262008614103 41.10119950040158 -3.6410957262451653 -3.3770519254332854 -34.66067262253805 -1.418813104893652 
2.14515 0.976962 0.023401900000000003 3.929137183262474 1.866731681299505 -89.78716014956223 4.896940410820608 -9.499040338191982 2.1804900812023806 -1.678320059271057 23.470100931672917 -4.812899628838655 -1.7998111953590126 -44.73849721458139 1.4858760643113627 3.704819683654092 8.262840131443143 -0.43648201161004835 0.19975799364265398 -0.5941530332575317 -0.3160360011868105 74.97071765099871 -13.077968963272161 -5.368039902217543 -2.986749943379604 33.910898851683655 22.77169872111348 -77.1232585981174 -18.585605552406893 -2.5464723209425855 -3.2873501972898618 37.71630118171583 -15.872999338630915 4.662870254851094 -28.174509835735087 -2.420206882624791 0.8734599589868631 44.33029778902475 -2.24365588409007 -2.711920206651216 -34.423607001730666 -1.411948764777789 
2.13253 0.97728 0.0218234 4.372644417959851 1.422246982498876 -89.53640341456355 4.538390057227612 -8.92996007560392 1.9488898923914726 -1.8220699280904378 23.051698911043566 -4.7866900585592 -2.079530707202895 -45.20061073835153 1.4644081394197779 3.740749893782944 8.257329876330235 0.06628930042196789 -0.6679560020038698 -0.7127349890067378 0.31239700446307467 75.49047455626916 -13.267736377850856 -4.386455060461616 -2.783289920505737 34.22370102510273 22.288899969441957 -75.29352605155185 -22.38923374080215 -0.34206417124686306 -3.5307198692577595 41.03339962760544 -14.711699840094083 4.423907549001735 -30.70966431977955 -0.7303164295388795 0.9278460873050302 44.418099870805264 -1.1225558908001703 -3.382504123938248 -35.43337533843618 -1.4739597320872175 
2.11646 0.97734 0.021273300000000002 4.701353675069061 1.0574152027469952 -89.5127504694678 4.103630160422905 -7.827389958645442 1.4201699646609574 -1.9135500667390035 22.231400021914205 -4.159040070064633 -1.6667768261303237 -45.81903997146658 1.519479314367356 4.045120198671637 8.165059997058886 0.6484959926457101 -1.7498799512052805 -0.44041798816054756 1.0732299721616307 76.0093503671367 -12.110710016413513 -3.1603522211835835 -2.7351099795438785 33.78659965407318 22.51109968352081 -72.96450667665837 -26.21688711960293 2.185784118139375 -3.783220010042083 44.42779873942668 -13.472499472752315 4.433939816232014 -32.3377287009113 0.8906847889391362 0.9273400129762145 42.233200902493635 -0.4253559269367885 -4.232270370137749 -36.19507461958142 -1.529826303907985 
